<svg xmlns="http://www.w3.org/2000/svg" viewBox="0 0 640 300" fill="none">
  <rect x="4" y="4" width="632" height="292" rx="10" fill="#1a2332" stroke="#0fbcbf" stroke-width="1" opacity="0.95"/>
  <rect x="4" y="4" width="632" height="34" rx="10" fill="#253545"/>
  <rect x="4" y="28" width="632" height="10" fill="#253545"/>
  <text x="22" y="26" fill="#0fbcbf" font-family="monospace" font-size="13">TEST PLAN</text>
  <text x="618" y="26" text-anchor="end" fill="#94a7ba" font-family="monospace" font-size="11">pyramid targets</text>
  <!-- pyramid -->
  <polygon points="150,70 210,70 240,130 120,130" fill="#a78bfa" opacity="0.25" stroke="#a78bfa"/>
  <text x="180" y="105" text-anchor="middle" fill="#c6b5fc" font-family="monospace" font-size="11">E2E · 10%</text>
  <polygon points="120,138 240,138 275,198 85,198" fill="#0fbcbf" opacity="0.2" stroke="#0fbcbf"/>
  <text x="180" y="172" text-anchor="middle" fill="#3cd6d9" font-family="monospace" font-size="11">INTEGRATION · 30%</text>
  <polygon points="85,206 275,206 310,266 50,266" fill="#34d399" opacity="0.18" stroke="#34d399"/>
  <text x="180" y="240" text-anchor="middle" fill="#34d399" font-family="monospace" font-size="11">UNIT · 60%</text>
  <!-- priority areas -->
  <text x="370" y="72" fill="#8899aa" font-family="monospace" font-size="10">PRIORITY AREAS</text>
  <line x1="366" y1="80" x2="618" y2="80" stroke="#334455" stroke-width="1"/>
  <text x="370" y="104" fill="#f97066" font-family="monospace" font-size="11">P1</text>
  <text x="400" y="104" fill="#e4ecf0" font-family="monospace" font-size="11">auth session handling</text>
  <text x="370" y="130" fill="#f97066" font-family="monospace" font-size="11">P1</text>
  <text x="400" y="130" fill="#e4ecf0" font-family="monospace" font-size="11">payment error paths</text>
  <text x="370" y="156" fill="#e8a838" font-family="monospace" font-size="11">P2</text>
  <text x="400" y="156" fill="#e4ecf0" font-family="monospace" font-size="11">order lifecycle states</text>
  <text x="370" y="182" fill="#e8a838" font-family="monospace" font-size="11">P2</text>
  <text x="400" y="182" fill="#e4ecf0" font-family="monospace" font-size="11">profile permission checks</text>
  <line x1="366" y1="200" x2="618" y2="200" stroke="#334455" stroke-width="1"/>
  <text x="370" y="224" fill="#8899aa" font-family="monospace" font-size="10">SAMPLE E2E SCENARIO</text>
  <text x="370" y="246" fill="#34d399" font-family="monospace" font-size="10">login &gt; add to cart &gt; pay &gt; confirm</text>
  <text x="370" y="266" fill="#8899aa" font-family="monospace" font-size="10">covers 3 of 7 high-risk routes</text>
</svg>
