<svg xmlns="http://www.w3.org/2000/svg" viewBox="0 0 640 300" fill="none">
  <rect x="4" y="4" width="632" height="292" rx="10" fill="#1a2332" stroke="#0fbcbf" stroke-width="1" opacity="0.95"/>
  <rect x="4" y="4" width="632" height="34" rx="10" fill="#253545"/>
  <rect x="4" y="28" width="632" height="10" fill="#253545"/>
  <text x="22" y="26" fill="#0fbcbf" font-family="monospace" font-size="13">DETERMINISTIC ANALYSES</text>
  <text x="618" y="26" text-anchor="end" fill="#94a7ba" font-family="monospace" font-size="11">instant · no model</text>
  <!-- 2x2 grid -->
  <rect x="18" y="52" width="296" height="104" rx="8" fill="#141e2a" stroke="#334455"/>
  <text x="34" y="76" fill="#3cd6d9" font-family="monospace" font-size="11">ACCESSIBILITY</text>
  <rect x="34" y="88" width="220" height="8" rx="4" fill="#253545"/>
  <rect x="34" y="88" width="164" height="8" rx="4" fill="#0fbcbf"/>
  <text x="34" y="120" fill="#e4ecf0" font-family="monospace" font-size="11">31 of 42 routes labeled</text>
  <text x="34" y="140" fill="#8899aa" font-family="monospace" font-size="10">missing: form errors, focus order</text>
  <rect x="326" y="52" width="296" height="104" rx="8" fill="#141e2a" stroke="#334455"/>
  <text x="342" y="76" fill="#efbf63" font-family="monospace" font-size="11">OBSERVABILITY</text>
  <rect x="342" y="88" width="220" height="8" rx="4" fill="#253545"/>
  <rect x="342" y="88" width="110" height="8" rx="4" fill="#e8a838"/>
  <text x="342" y="120" fill="#e4ecf0" font-family="monospace" font-size="11">logs yes · metrics partial</text>
  <text x="342" y="140" fill="#8899aa" font-family="monospace" font-size="10">no tracing on payment path</text>
  <rect x="18" y="168" width="296" height="104" rx="8" fill="#141e2a" stroke="#334455"/>
  <text x="34" y="192" fill="#c6b5fc" font-family="monospace" font-size="11">CONTRACTS</text>
  <rect x="34" y="204" width="220" height="8" rx="4" fill="#253545"/>
  <rect x="34" y="204" width="190" height="8" rx="4" fill="#a78bfa"/>
  <text x="34" y="236" fill="#e4ecf0" font-family="monospace" font-size="11">openapi spec matches 38/42</text>
  <text x="34" y="256" fill="#8899aa" font-family="monospace" font-size="10">4 undocumented endpoints</text>
  <rect x="326" y="168" width="296" height="104" rx="8" fill="#141e2a" stroke="#334455"/>
  <text x="342" y="192" fill="#34d399" font-family="monospace" font-size="11">COMPLIANCE</text>
  <rect x="342" y="204" width="220" height="8" rx="4" fill="#253545"/>
  <rect x="342" y="204" width="200" height="8" rx="4" fill="#34d399"/>
  <text x="342" y="236" fill="#e4ecf0" font-family="monospace" font-size="11">4 pii fields flagged</text>
  <text x="342" y="256" fill="#8899aa" font-family="monospace" font-size="10">retention policy not enforced</text>
</svg>
