<svg xmlns="http://www.w3.org/2000/svg" viewBox="0 0 400 200" fill="none">
  <!-- Chart background -->
  <rect x="10" y="10" width="380" height="180" rx="8" fill="#1a2332" stroke="#fbbf24" stroke-width="1" opacity="0.9"/>

  <!-- Title -->
  <text x="200" y="30" text-anchor="middle" fill="#fbbf24" font-family="sans-serif" font-size="11" font-weight="600">First Digit Frequency Analysis</text>

  <!-- Y-axis -->
  <line x1="50" y1="42" x2="50" y2="158" stroke="#334455" stroke-width="1"/>
  <text x="46" y="48" text-anchor="end" fill="#667788" font-family="monospace" font-size="7">30%</text>
  <text x="46" y="78" text-anchor="end" fill="#667788" font-family="monospace" font-size="7">20%</text>
  <text x="46" y="108" text-anchor="end" fill="#667788" font-family="monospace" font-size="7">10%</text>
  <text x="46" y="158" text-anchor="end" fill="#667788" font-family="monospace" font-size="7">0%</text>
  <!-- Grid lines -->
  <line x1="50" y1="45" x2="360" y2="45" stroke="#253545" stroke-width="0.5"/>
  <line x1="50" y1="75" x2="360" y2="75" stroke="#253545" stroke-width="0.5"/>
  <line x1="50" y1="105" x2="360" y2="105" stroke="#253545" stroke-width="0.5"/>

  <!-- X-axis -->
  <line x1="50" y1="158" x2="360" y2="158" stroke="#334455" stroke-width="1"/>

  <!-- Expected bars (Benford's Law - red/coral) -->
  <rect x="58" y="48" width="12" height="110" rx="2" fill="rgba(249,112,102,0.4)"/>
  <rect x="92" y="68" width="12" height="90" rx="2" fill="rgba(249,112,102,0.4)"/>
  <rect x="126" y="82" width="12" height="76" rx="2" fill="rgba(249,112,102,0.4)"/>
  <rect x="160" y="92" width="12" height="66" rx="2" fill="rgba(249,112,102,0.4)"/>
  <rect x="194" y="99" width="12" height="59" rx="2" fill="rgba(249,112,102,0.4)"/>
  <rect x="228" y="104" width="12" height="54" rx="2" fill="rgba(249,112,102,0.4)"/>
  <rect x="262" y="109" width="12" height="49" rx="2" fill="rgba(249,112,102,0.4)"/>
  <rect x="296" y="113" width="12" height="45" rx="2" fill="rgba(249,112,102,0.4)"/>
  <rect x="330" y="116" width="12" height="42" rx="2" fill="rgba(249,112,102,0.4)"/>

  <!-- Observed bars (blue) -->
  <rect x="72" y="50" width="12" height="108" rx="2" fill="rgba(96,165,250,0.7)"/>
  <rect x="106" y="72" width="12" height="86" rx="2" fill="rgba(96,165,250,0.7)"/>
  <rect x="140" y="85" width="12" height="73" rx="2" fill="rgba(96,165,250,0.7)"/>
  <rect x="174" y="95" width="12" height="63" rx="2" fill="rgba(96,165,250,0.7)"/>
  <rect x="208" y="101" width="12" height="57" rx="2" fill="rgba(96,165,250,0.7)"/>
  <rect x="242" y="108" width="12" height="50" rx="2" fill="rgba(96,165,250,0.7)"/>
  <rect x="276" y="112" width="12" height="46" rx="2" fill="rgba(96,165,250,0.7)"/>
  <rect x="310" y="115" width="12" height="43" rx="2" fill="rgba(96,165,250,0.7)"/>
  <rect x="344" y="120" width="12" height="38" rx="2" fill="rgba(96,165,250,0.7)"/>

  <!-- X-axis labels (digits 1-9) -->
  <text x="68" y="172" text-anchor="middle" fill="#8899aa" font-family="monospace" font-size="10">1</text>
  <text x="102" y="172" text-anchor="middle" fill="#8899aa" font-family="monospace" font-size="10">2</text>
  <text x="136" y="172" text-anchor="middle" fill="#8899aa" font-family="monospace" font-size="10">3</text>
  <text x="170" y="172" text-anchor="middle" fill="#8899aa" font-family="monospace" font-size="10">4</text>
  <text x="204" y="172" text-anchor="middle" fill="#8899aa" font-family="monospace" font-size="10">5</text>
  <text x="238" y="172" text-anchor="middle" fill="#8899aa" font-family="monospace" font-size="10">6</text>
  <text x="272" y="172" text-anchor="middle" fill="#8899aa" font-family="monospace" font-size="10">7</text>
  <text x="306" y="172" text-anchor="middle" fill="#8899aa" font-family="monospace" font-size="10">8</text>
  <text x="340" y="172" text-anchor="middle" fill="#8899aa" font-family="monospace" font-size="10">9</text>

  <!-- Legend -->
  <rect x="58" y="180" width="10" height="8" rx="2" fill="rgba(96,165,250,0.7)"/>
  <text x="72" y="187" fill="#60a5fa" font-family="sans-serif" font-size="8">Observed</text>
  <rect x="120" y="180" width="10" height="8" rx="2" fill="rgba(249,112,102,0.4)"/>
  <text x="134" y="187" fill="#f97066" font-family="sans-serif" font-size="8">Expected (Benford)</text>

  <!-- Stats badge -->
  <rect x="250" y="178" width="110" height="14" rx="4" fill="rgba(52,211,153,0.15)" stroke="#34d399" stroke-width="0.6"/>
  <text x="305" y="188" text-anchor="middle" fill="#34d399" font-family="sans-serif" font-size="8" font-weight="600">p=0.87 · Conforms</text>
</svg>
